# xmcd
#
# Track frame offsets:
# 150
# 22239
# 28996
# 44348
# 66528
# 77601
# 102694
# 123001
# 126159
# 140425
# 154037
# 173064
# 194190
# 219461
# 239717
# 252007
# 271156
#
# Disc length: 3928 seconds
#
# Revision: 0
# Processed by: cddbd v1.4PL0 Copyright (c) Steve Scherf et al.
# Submitted via: Audion 3.0.2 (http://www.panic.com/audion/)
#
DISCID=030f5611
DTITLE=@ - @
DYEAR=1900
DGENRE=
TTITLE0=@
TTITLE1=@
TTITLE2=@
TTITLE3=@
TTITLE4=@
TTITLE5=@
TTITLE6=@
TTITLE7=@
TTITLE8=@
TTITLE9=@
TTITLE10=@
TTITLE11=@
TTITLE12=@
TTITLE13=@
TTITLE14=@
TTITLE15=@
TTITLE16=@
EXTD=
EXTT0=
EXTT1=
EXTT2=
EXTT3=
EXTT4=
EXTT5=
EXTT6=
EXTT7=
EXTT8=
EXTT9=
EXTT10=
EXTT11=
EXTT12=
EXTT13=
EXTT14=
EXTT15=
EXTT16=
PLAYORDER=
